<mxfile host="65bd71144e">
    <diagram id="EY3IVo_OdCIjz8TJnaJj" name="Page-1">
        <mxGraphModel dx="638" dy="436" grid="1" gridSize="10" guides="1" tooltips="1" connect="1" arrows="1" fold="1" page="1" pageScale="1" pageWidth="850" pageHeight="1100" math="0" shadow="0">
            <root>
                <mxCell id="0"/>
                <mxCell id="1" parent="0"/>
                <mxCell id="2" value="Container" style="swimlane;" vertex="1" parent="1">
                    <mxGeometry x="40" y="30" width="560" height="560" as="geometry"/>
                </mxCell>
                <mxCell id="14" value="" style="whiteSpace=wrap;html=1;aspect=fixed;" vertex="1" parent="2">
                    <mxGeometry x="26" y="30" width="510" height="510" as="geometry"/>
                </mxCell>
            </root>
        </mxGraphModel>
    </diagram>
</mxfile>